<svg viewBox="0 0 68 52" xmlns="http://www.w3.org/2000/svg">
  <path transform="translate(17.4 0)" d="M10.5926 15.7795H0.000244141L21.6208 50.7821L49.5182 0H38.8387L21.0105 32.518L10.5926 15.7795Z" fill="#FE7F2D"/>
  <path transform="translate(0 1.3)" d="M7.2359 9.54628L0 0.0437116C6.36411 0.0437116 21.1933 0.0349937 29.5975 0.000121835C38.0016 -0.03475 43.4445 7.42491 45.1154 11.1591L40.059 20.2694L36.9205 15.0386C34.4446 10.3309 31.4718 9.21209 30.2949 9.24115L8.36924 9.11038L20.618 29.1617L15.4308 41.454H28.1154L33.6513 50.5207H0.217949C1.06068 48.6754 3.39128 43.8253 5.9718 39.1873C8.55231 34.5494 9.5171 29.6412 9.67693 27.7668C10.5836 19.4324 8.42736 12.1471 7.2359 9.54628Z" fill="#FE7F2D"/>
</svg>
